<svg width="165.429" height="53.808" viewBox="0 0 165.429 53.808" xmlns="http://www.w3.org/2000/svg">
  <g strokeLinecap="round" fillRule="evenodd" fontSize="9pt" stroke="currentColor" strokeWidth="0.25mm" fill="currentColor">
    <path d="M 114.609 42.8 Q 112.459 42.8 111.559 41.325 Q 110.659 39.85 110.659 37.95 Q 110.659 36.8 110.909 35.7 Q 111.159 34.6 111.509 33.65 Q 112.059 32.3 113.084 30.775 Q 114.109 29.25 115.559 28.15 Q 117.009 27.05 118.709 27.05 Q 120.109 27.05 120.659 27.825 Q 121.209 28.6 121.209 29.75 L 121.209 30.125 Q 121.209 30.3 121.159 30.55 Q 121.009 31.9 120.109 33.35 Q 119.209 34.8 117.859 35.775 Q 116.509 36.75 114.959 36.75 Q 114.059 36.75 113.359 36.25 Q 112.909 37.95 112.909 39.35 Q 112.909 40.5 113.334 41.25 Q 113.759 42 114.659 42 Q 115.709 42 117.184 41.075 Q 118.659 40.15 120.384 37.9 A 31.762 31.762 0 0 0 121.057 36.941 A 0.239 0.239 0 0 1 121.056 36.932 A 0.225 0.225 0 0 1 121.109 36.8 Q 121.809 35.6 122.384 34.6 Q 122.959 33.6 123.359 32.8 A 96.527 96.527 0 0 1 123.856 31.863 A 57.248 57.248 0 0 0 123.909 31.75 A 0.077 0.077 0 0 1 123.94 31.708 A 96.527 96.527 0 0 1 124.759 30.225 Q 125.559 28.8 126.509 28.3 Q 126.959 28.05 127.459 27.925 Q 127.959 27.8 128.359 27.8 Q 129.059 27.8 129.459 28.05 Q 129.959 28.35 130.109 29.025 Q 130.259 29.7 130.259 30.5 Q 130.259 31.3 130.159 32.1 Q 130.059 32.9 130.059 33.3 Q 130.809 32.65 131.684 31.8 Q 132.559 30.95 133.284 29.975 Q 134.009 29 134.259 28.15 Q 134.409 27.7 134.434 27.35 Q 134.459 27 134.759 26.55 Q 134.909 26.35 135.109 26.35 Q 135.359 26.35 135.484 26.625 A 0.75 0.75 0 0 1 135.553 26.938 A 0.825 0.825 0 0 1 135.509 27.2 Q 135.209 28.3 134.209 29.65 Q 133.209 31 132.034 32.225 Q 130.859 33.45 130.009 34.15 Q 129.909 34.75 129.909 36.6 Q 129.909 37.3 129.959 38.075 Q 130.009 38.8 130.059 39.3 Q 130.409 41.2 131.409 41.3 Q 132.209 41.3 133.409 39.85 A 36.968 36.968 0 0 0 134.952 37.651 A 0.315 0.315 0 0 1 134.946 37.631 A 0.042 0.042 0 0 1 134.959 37.6 A 28.806 28.806 0 0 0 135.319 37.075 A 36.968 36.968 0 0 0 135.759 36.35 A 131.825 131.825 0 0 0 136.78 34.638 A 102.493 102.493 0 0 0 138.259 31.8 Q 138.759 30.75 139.384 29.625 Q 140.009 28.5 140.859 27.725 Q 141.709 26.95 142.809 26.95 Q 143.309 26.95 143.959 27.2 Q 144.709 27.5 144.709 28.5 Q 144.709 29 144.534 29.675 Q 144.359 30.35 144.059 31.2 Q 143.409 32.9 142.634 34.625 Q 141.859 36.35 141.209 38.1 Q 140.709 39.45 140.709 40.5 Q 140.709 41.65 141.459 41.65 Q 142.159 41.65 143.609 40.4 Q 145.059 39.1 146.309 37.125 A 73.737 73.737 0 0 0 147.528 35.08 A 20.312 20.312 0 0 1 148.109 33.65 Q 149.709 30.3 152.584 28.525 Q 155.459 26.75 158.509 26.75 L 159.334 26.75 Q 159.759 26.75 160.159 26.85 Q 161.159 27 161.159 27.1 Q 161.159 27.2 160.434 27.3 Q 159.709 27.4 159.359 27.4 Q 156.909 27.4 154.984 28.7 Q 153.059 30 151.709 32 Q 150.359 34 149.634 36.075 Q 148.909 38.15 148.909 39.65 Q 148.909 40.6 149.234 41.2 Q 149.559 41.8 150.209 41.8 Q 150.909 41.8 151.809 40.85 Q 152.709 39.9 153.559 38.525 Q 154.409 37.15 155.109 35.825 Q 155.809 34.5 156.159 33.8 L 158.309 29.3 Q 159.159 29.1 160.034 28.825 Q 160.909 28.55 161.709 28.2 Q 160.859 29.65 160.084 31.25 Q 159.309 32.85 158.509 34.4 Q 157.909 35.55 157.334 37.1 A 8.145 8.145 0 0 0 156.759 39.9 L 156.759 40.1 Q 156.759 40.5 156.859 40.975 Q 156.959 41.45 157.409 41.45 Q 157.959 41.45 158.809 40.775 Q 159.659 40.1 160.009 39.75 Q 161.609 38.15 162.784 36.2 Q 163.959 34.25 164.959 32.25 Q 165.059 32.15 165.109 32.15 Q 165.509 32.15 165.409 32.55 L 165.184 33 Q 164.959 33.45 164.909 33.5 Q 163.959 35.25 163.009 36.85 Q 162.059 38.45 160.759 39.9 Q 159.959 40.7 158.809 41.6 Q 157.659 42.5 156.509 42.5 Q 155.409 42.5 154.959 41.625 Q 154.509 40.75 154.509 39.65 Q 154.509 38.95 154.634 38.275 Q 154.759 37.6 154.909 37.1 Q 154.559 38 153.684 39.3 Q 152.809 40.6 151.734 41.575 Q 150.659 42.55 149.609 42.55 Q 147.909 42.55 147.284 41.6 Q 146.659 40.65 146.659 39.25 A 10.226 10.226 0 0 1 146.88 37.241 A 62.192 62.192 0 0 1 146.178 38.331 A 27.112 27.112 0 0 1 145.059 39.875 Q 142.959 42.55 140.309 42.55 Q 139.409 42.55 138.884 41.875 Q 138.359 41.2 138.359 40.1 Q 138.359 38.7 138.934 37.1 Q 139.509 35.5 140.284 33.875 Q 141.059 32.25 141.659 30.8 Q 141.909 30.1 142.109 29.55 Q 142.309 29 142.309 28.65 Q 142.309 28.15 141.859 28.15 A 1.626 1.626 0 0 0 140.659 28.9 Q 140.059 29.65 139.584 30.575 Q 139.109 31.5 138.809 32.05 A 93.413 93.413 0 0 1 138.247 33.116 A 65.573 65.573 0 0 1 136.059 37.05 Q 134.959 38.85 134.059 40.05 Q 133.409 40.95 132.534 41.675 Q 131.659 42.4 130.359 42.4 Q 129.659 42.4 129.084 41.95 Q 128.509 41.5 128.209 40.4 Q 127.909 39.4 127.834 38.175 Q 127.759 36.95 127.809 35.7 Q 127.609 35.9 126.659 36.975 Q 125.709 38.05 124.484 39.575 Q 123.259 41.1 122.159 42.675 Q 121.059 44.25 120.509 45.4 Q 120.059 46.35 119.609 46.35 Q 119.409 46.35 119.409 46.1 Q 119.409 45.85 119.509 45.7 Q 120.109 44.2 121.284 42.5 Q 122.459 40.8 123.759 39.275 Q 125.059 37.75 126.184 36.575 Q 127.309 35.4 127.859 34.95 Q 128.009 32.75 128.009 31.55 Q 128.009 30.85 127.984 30.4 Q 127.959 29.95 127.909 29.7 Q 127.859 29.1 127.309 29.1 Q 127.009 29.1 126.659 29.3 Q 126.209 29.6 125.659 30.3 Q 125.109 31 124.609 31.8 A 27.326 27.326 0 0 0 124.309 32.285 A 30.98 30.98 0 0 1 120.662 38.611 A 14.871 14.871 0 0 1 119.234 40.2 Q 116.509 42.8 114.609 42.8 Z M 59.109 33.8 L 61.259 29.3 Q 62.109 29.1 62.984 28.825 Q 63.859 28.55 64.659 28.2 Q 63.809 29.65 63.034 31.25 Q 62.259 32.85 61.459 34.4 Q 60.859 35.55 60.284 37.1 A 8.145 8.145 0 0 0 59.709 39.9 L 59.709 40.1 Q 59.709 40.5 59.809 40.975 Q 59.909 41.45 60.359 41.45 Q 60.909 41.45 61.759 40.775 Q 62.609 40.1 62.959 39.75 Q 64.559 38.15 65.734 36.2 Q 66.909 34.25 67.909 32.25 Q 68.009 32.15 68.059 32.15 A 0.258 0.258 0 0 1 68.141 32.143 A 9.36 9.36 0 0 1 66.684 30.05 Q 65.709 28.15 65.709 25.65 Q 65.709 22.05 67.759 19.1 Q 69.809 16.15 73.109 14.1 Q 73.059 13.75 73.034 13.425 Q 73.009 13.1 73.009 12.75 L 73.009 12.375 Q 73.009 12.2 73.059 12 Q 73.459 8.55 75.184 5.825 Q 76.909 3.1 80.434 1.55 A 21.18 21.18 0 0 1 87.955 0.038 A 38.909 38.909 0 0 1 89.709 0 Q 90.709 0 91.809 0.05 Q 92.909 0.1 94.059 0.2 Q 96.659 0.45 100.234 1.5 Q 103.809 2.55 107.884 3.9 Q 111.959 5.25 116.009 6.4 Q 117.209 4.85 118.484 3.8 Q 119.759 2.75 121.159 2.3 L 121.309 2.3 Q 121.659 2.3 121.659 2.65 Q 121.659 2.95 121.409 3 Q 120.159 3.4 119.034 4.325 Q 117.909 5.25 116.809 6.6 Q 119.759 7.4 122.509 7.9 Q 125.259 8.4 127.559 8.4 Q 129.309 8.4 130.734 8.075 Q 132.159 7.75 133.259 7 Q 135.759 5.3 136.209 1.95 Q 136.209 1.6 136.559 1.6 Q 136.709 1.6 136.859 1.725 Q 137.009 1.85 136.959 2.05 Q 136.759 3.85 135.934 5.225 Q 135.109 6.6 133.859 7.5 Q 132.159 8.75 129.859 9.3 Q 127.559 9.85 124.859 9.85 Q 122.709 9.85 120.284 9.525 Q 117.859 9.2 115.309 8.7 Q 114.909 9.35 114.459 10.05 Q 114.009 10.75 113.609 11.5 Q 112.359 13.75 111.459 16.825 Q 110.559 19.9 109.609 23.375 Q 108.659 26.85 107.359 30.375 Q 106.059 33.9 104.084 37.1 Q 102.109 40.3 99.109 42.825 Q 96.109 45.35 91.784 46.8 A 31.78 31.78 0 0 1 82.202 48.244 A 48.371 48.371 0 0 1 81.459 48.25 Q 77.309 48.25 74.559 46.6 Q 71.809 44.95 70.459 42.2 Q 69.109 39.45 69.109 36.15 Q 69.109 35.45 69.184 34.725 Q 69.259 34 69.359 33.25 A 9.36 9.36 0 0 1 68.378 32.391 A 0.258 0.258 0 0 1 68.379 32.406 A 0.6 0.6 0 0 1 68.359 32.55 L 68.134 33 Q 67.909 33.45 67.859 33.5 Q 66.909 35.25 65.959 36.85 Q 65.009 38.45 63.709 39.9 Q 62.909 40.7 61.759 41.6 Q 60.609 42.5 59.459 42.5 Q 58.359 42.5 57.909 41.625 Q 57.459 40.75 57.459 39.65 Q 57.459 38.95 57.584 38.275 Q 57.709 37.6 57.859 37.1 Q 57.509 38 56.634 39.3 Q 55.759 40.6 54.684 41.575 Q 53.609 42.55 52.559 42.55 Q 50.859 42.55 50.234 41.6 Q 49.609 40.65 49.609 39.25 Q 49.609 37.8 50.109 36.2 Q 50.609 34.6 51.059 33.65 Q 52.659 30.3 55.534 28.525 Q 58.409 26.75 61.459 26.75 L 62.284 26.75 Q 62.709 26.75 63.109 26.85 Q 64.109 27 64.109 27.1 Q 64.109 27.2 63.384 27.3 Q 62.659 27.4 62.309 27.4 Q 59.859 27.4 57.934 28.7 Q 56.009 30 54.659 32 Q 53.309 34 52.584 36.075 Q 51.859 38.15 51.859 39.65 Q 51.859 40.6 52.184 41.2 Q 52.509 41.8 53.159 41.8 Q 53.859 41.8 54.759 40.85 Q 55.659 39.9 56.509 38.525 Q 57.359 37.15 58.059 35.825 Q 58.759 34.5 59.109 33.8 Z M 54.309 53.8 Q 52.109 53.8 49.434 53.3 Q 46.759 52.8 43.809 51.75 Q 41.309 50.85 38.934 49.55 Q 36.559 48.25 34.259 46.85 Q 31.759 47.9 28.909 48.45 Q 26.059 49 22.959 49 Q 21.909 49 20.934 48.925 Q 19.959 48.85 19.109 48.75 Q 15.959 50.2 12.559 50.8 Q 11.609 50.95 10.609 51.05 Q 9.609 51.15 8.609 51.15 Q 6.359 51.15 4.409 50.575 Q 2.459 50 1.234 48.65 Q 0.009 47.3 0.009 44.95 Q 0.009 44.15 0.159 43.35 Q 0.259 43.05 0.509 43.05 Q 0.809 43.05 0.809 43.3 Q 0.809 43.55 0.784 43.825 Q 0.759 44.1 0.759 44.35 Q 0.759 46.5 1.984 47.85 Q 3.209 49.2 5.159 49.85 Q 7.109 50.5 9.259 50.5 Q 11.709 50.5 13.959 49.8 Q 14.809 49.55 15.634 49.2 Q 16.459 48.85 17.259 48.4 Q 14.209 47.65 12.184 46.3 Q 10.159 44.95 9.184 43.325 A 6.086 6.086 0 0 1 8.209 40.2 Q 8.209 38.4 9.559 37.125 Q 10.909 35.85 13.509 35.85 Q 15.309 35.85 17.609 36.6 Q 19.809 37.3 21.984 38.2 Q 24.159 39.1 26.309 40.1 Q 28.659 37 30.709 33.6 Q 32.759 30.2 34.459 27.1 Q 33.059 27.25 31.659 27.25 Q 26.509 27.25 22.709 26.075 Q 18.909 24.9 16.409 22.95 Q 13.909 21 12.709 18.6 Q 11.509 16.2 11.509 13.75 Q 11.509 10.85 13.134 8.275 Q 14.759 5.7 17.934 4.1 Q 21.109 2.5 25.709 2.5 Q 29.059 2.5 32.384 3.55 Q 35.709 4.6 38.659 6.625 Q 41.609 8.65 43.709 11.5 A 41.161 41.161 0 0 1 49.415 4.79 A 25.719 25.719 0 0 1 49.459 4.75 Q 52.259 2.2 54.759 1.5 Q 55.759 1.25 56.509 1.25 Q 58.359 1.25 59.759 2.4 Q 61.159 3.55 61.159 6.1 Q 61.159 10 59.384 13.25 Q 57.609 16.5 54.634 19 Q 51.659 21.5 48.059 23.25 Q 48.209 24.65 48.209 26.05 Q 48.209 32.25 45.284 37.3 Q 42.359 42.35 37.159 45.4 Q 39.159 46.3 41.159 47.175 Q 43.159 48.05 45.209 48.75 Q 47.859 49.7 50.509 50.2 Q 53.159 50.7 55.459 50.7 Q 58.859 50.7 61.034 49.575 Q 63.209 48.45 63.209 46 Q 63.209 45.4 63.084 44.75 Q 62.959 44.1 62.659 43.4 Q 62.659 43.35 62.634 43.325 Q 62.609 43.3 62.609 43.25 Q 62.609 42.85 63.009 42.85 Q 63.209 42.85 63.359 43.1 Q 64.159 45.05 64.159 46.8 Q 64.159 50.05 61.534 51.925 A 12.015 12.015 0 0 1 54.594 53.798 A 22.124 22.124 0 0 1 54.309 53.8 Z M 84.159 10.3 L 84.209 10.3 Q 84.609 10.3 84.609 10.7 Q 84.609 11 84.259 11.05 Q 81.459 11.4 78.834 12.25 Q 76.209 13.1 74.009 14.4 Q 74.309 15.8 75.134 17.175 Q 75.959 18.55 77.259 19.6 Q 79.209 17.9 81.584 16.525 Q 83.959 15.15 86.759 14.2 Q 90.509 12.95 93.459 12.95 Q 97.759 12.95 99.884 15.175 Q 102.009 17.4 102.009 20.55 Q 102.009 23.1 100.634 25.85 Q 99.259 28.6 96.484 30.95 Q 93.709 33.3 89.609 34.775 Q 85.509 36.25 80.009 36.25 Q 77.559 36.25 75.284 35.775 Q 73.009 35.3 71.109 34.35 Q 71.059 34.8 71.034 35.25 Q 71.009 35.7 71.009 36.15 Q 71.009 39.25 72.134 41.825 Q 73.259 44.4 75.584 45.95 Q 77.909 47.5 81.459 47.5 Q 85.509 47.5 88.834 46.025 Q 92.159 44.55 94.884 42 Q 97.609 39.45 99.884 36.15 Q 102.159 32.85 104.084 29.15 Q 106.009 25.45 107.734 21.75 Q 109.459 18.05 111.134 14.65 Q 112.809 11.25 114.509 8.55 Q 110.309 7.65 105.959 6.425 Q 101.609 5.2 97.609 4.15 Q 95.609 3.6 93.609 3.375 Q 91.609 3.15 89.709 3.15 Q 85.509 3.15 81.984 4.225 Q 78.459 5.3 76.259 7.275 Q 74.059 9.25 73.809 11.95 Q 73.809 12.15 73.784 12.3 Q 73.759 12.45 73.759 12.65 Q 73.759 12.85 73.784 13.125 Q 73.809 13.4 73.859 13.65 Q 76.109 12.35 78.734 11.325 Q 81.359 10.3 84.159 10.3 Z M 88.359 21.2 L 88.509 21.2 Q 88.809 21.2 88.809 21.55 Q 88.809 21.85 88.559 21.9 Q 87.309 22.25 86.159 22.4 Q 85.009 22.55 83.959 22.55 Q 82.009 22.55 80.434 22.075 Q 78.859 21.6 77.609 20.8 Q 74.959 23.55 73.359 26.825 Q 71.759 30.1 71.259 33.35 Q 73.209 34.45 75.684 35 Q 78.159 35.55 80.809 35.55 Q 85.659 35.55 89.334 34.15 Q 93.009 32.75 95.509 30.525 Q 98.009 28.3 99.259 25.725 Q 100.509 23.15 100.509 20.75 Q 100.509 17.85 98.659 15.85 Q 96.809 13.85 92.959 13.85 Q 90.359 13.85 87.009 14.95 Q 84.409 15.8 82.184 17.175 Q 79.959 18.55 78.159 20.25 Q 79.309 20.95 80.759 21.375 Q 82.209 21.8 83.959 21.8 Q 84.959 21.8 86.059 21.675 Q 87.159 21.55 88.359 21.2 Z M 34.909 26.3 L 37.159 22.2 Q 38.659 19.45 40.159 17.025 Q 41.659 14.6 43.059 12.5 Q 41.109 9.55 38.309 7.5 Q 35.509 5.45 32.259 4.35 Q 29.009 3.25 25.709 3.25 Q 21.809 3.25 19.109 4.75 Q 16.409 6.25 14.984 8.65 Q 13.559 11.05 13.559 13.8 Q 13.559 16.1 14.634 18.35 Q 15.709 20.6 17.934 22.45 Q 20.159 24.3 23.559 25.4 Q 26.959 26.5 31.659 26.5 Q 32.459 26.5 33.284 26.425 Q 34.109 26.35 34.909 26.3 Z M 36.009 44.8 Q 41.059 41.85 43.984 36.8 Q 46.909 31.75 46.909 25.7 Q 46.909 25.25 46.884 24.775 Q 46.859 24.3 46.809 23.8 Q 44.859 24.7 42.834 25.35 Q 40.809 26 38.759 26.4 Q 36.909 30.5 34.434 34.325 Q 31.959 38.15 28.959 41.35 Q 30.709 42.2 32.484 43.075 Q 34.259 43.95 36.009 44.8 Z M 47.959 22.45 Q 51.459 20.7 54.259 18.25 Q 57.059 15.8 58.734 12.75 Q 60.409 9.7 60.409 6.1 Q 60.409 4 59.259 2.95 Q 58.109 1.9 56.559 1.9 Q 55.559 1.9 54.559 2.35 A 13.071 13.071 0 0 0 50.236 5.983 A 26.382 26.382 0 0 0 49.934 6.35 Q 47.509 9.35 45.059 13.55 Q 45.559 14.35 45.934 15.2 Q 46.309 16.05 46.609 16.95 Q 47.559 19.7 47.959 22.45 Z M 69.609 32.2 Q 70.309 29.05 72.084 25.9 Q 73.859 22.75 76.659 20.15 Q 75.359 19.05 74.509 17.65 Q 73.659 16.25 73.259 14.85 Q 70.209 16.85 68.334 19.6 Q 66.459 22.35 66.459 25.6 Q 66.459 27.7 67.309 29.35 Q 68.159 31 69.609 32.2 Z M 18.209 47.8 Q 20.209 46.55 22.009 44.85 Q 23.809 43.15 25.459 41.15 Q 23.459 39.95 21.459 38.95 Q 19.459 37.95 17.409 37.3 Q 15.609 36.75 14.359 36.75 Q 12.259 36.75 11.184 37.825 Q 10.109 38.9 10.109 40.45 Q 10.109 41.8 10.984 43.275 Q 11.859 44.75 13.659 45.95 Q 15.459 47.15 18.209 47.8 Z M 33.259 46.2 L 27.759 42.6 Q 26.059 44.25 24.209 45.65 Q 22.359 47.05 20.309 48.15 Q 20.859 48.2 21.459 48.225 Q 22.059 48.25 22.709 48.25 Q 28.559 48.25 33.259 46.2 Z M 39.609 24.55 L 39.159 25.6 Q 41.059 25.15 42.984 24.5 Q 44.909 23.85 46.759 23.05 Q 46.459 20.15 45.409 17.15 Q 45.209 16.55 44.934 15.95 Q 44.659 15.35 44.409 14.8 Q 43.159 17 41.959 19.45 Q 40.759 21.9 39.609 24.55 Z M 114.709 35.95 Q 115.809 35.95 116.859 35.125 Q 117.909 34.3 118.759 33.025 Q 119.609 31.75 120.109 30.45 Q 120.309 29.9 120.309 29.2 Q 120.309 28.55 120.084 28.075 Q 119.859 27.6 119.309 27.6 Q 118.409 27.6 117.359 28.725 Q 116.309 29.85 115.409 31.375 Q 114.509 32.9 114.059 34.15 Q 113.909 34.5 113.784 34.875 Q 113.659 35.25 113.559 35.65 Q 114.159 35.95 114.709 35.95 Z M 145.809 23.8 Q 145.109 23.8 144.634 23.325 Q 144.159 22.85 144.159 22.2 Q 144.159 21.35 144.734 20.75 Q 145.309 20.15 146.109 20.15 Q 146.809 20.15 147.309 20.65 Q 147.809 21.15 147.809 21.9 Q 147.809 22.7 147.209 23.25 Q 146.609 23.8 145.809 23.8 Z" />
  </g>
</svg>