<svg version="1.1" id="Layer_1" xmlns="http://www.w3.org/2000/svg" xmlns:xlink="http://www.w3.org/1999/xlink" x="0px" y="0px"
	 width="100%" viewBox="0 0 1024 768" enable-background="new 0 0 1024 768" xml:space="preserve">
<path fill="#000000" opacity="1.000000" stroke="none" 
	d="
M229.999969,703.249634 
	C185.001328,703.253662 140.502701,703.257690 96.004082,703.261230 
	C88.445442,703.261841 88.558609,703.260925 88.566437,695.684509 
	C88.633408,630.853333 88.676285,566.022156 88.687904,501.190979 
	C88.711235,371.028442 88.712326,240.865891 88.715622,110.703339 
	C88.715904,99.760765 88.646057,99.539139 99.233604,97.367973 
	C113.411324,94.460564 127.535454,91.153381 141.974396,89.746910 
	C145.837677,89.370590 146.581665,87.184891 146.573593,84.012978 
	C146.546478,73.347031 146.913071,62.661751 146.356445,52.024292 
	C146.126343,47.626770 147.648651,46.604305 151.347809,46.100693 
	C169.821060,43.585705 188.246613,40.657631 206.827240,39.045330 
	C236.533813,36.467587 266.276764,34.341755 296.126801,34.969826 
	C330.148529,35.685673 363.958527,38.617485 397.255615,45.953491 
	C429.937653,53.153988 461.485474,63.499783 490.369720,80.858223 
	C497.370361,85.065376 504.161499,89.622231 510.251862,95.098434 
	C512.327942,96.965157 513.743713,97.250748 516.153503,95.319977 
	C538.802795,77.172890 564.528503,64.802185 591.920349,55.735325 
	C625.784790,44.525978 660.621094,38.761402 696.208862,36.531422 
	C734.058655,34.159691 771.758057,35.460949 809.491150,38.513691 
	C830.752136,40.233791 851.886963,42.863182 872.995056,45.789482 
	C880.189575,46.786884 879.554688,47.065460 880.271973,54.176746 
	C881.846191,69.784477 878.325562,83.441811 868.601685,96.072807 
	C861.937256,104.729706 857.062988,114.757454 851.271790,124.100060 
	C850.110107,125.974182 849.399048,128.399841 846.873718,129.217514 
	C845.070679,127.930901 845.817444,126.119072 845.817566,124.590866 
	C845.818359,110.258842 845.768921,95.924454 846.031433,81.596199 
	C846.113037,77.141136 844.667725,75.605797 840.111938,75.199371 
	C813.406982,72.817055 786.710205,70.360558 759.898682,69.578224 
	C733.240479,68.800362 706.632690,69.242668 680.053528,72.020233 
	C651.265259,75.028664 623.182068,81.071526 595.853943,90.454086 
	C568.549927,99.828362 543.365845,113.250816 520.609985,131.162170 
	C513.201721,136.993271 514.419678,137.850372 506.032745,131.207916 
	C474.207123,106.001869 437.635712,91.054695 398.599854,81.246948 
	C354.220520,70.096657 309.049896,68.405487 263.650116,69.454834 
	C237.005676,70.070679 210.504684,72.963470 183.975006,75.331009 
	C180.126694,75.674431 180.021378,78.002571 180.029480,80.883087 
	C180.113403,110.713226 180.197662,140.543488 180.198044,170.373703 
	C180.199600,294.536194 180.173859,418.698669 180.148651,542.861145 
	C180.147766,547.193787 180.098526,551.527893 179.975983,555.858643 
	C179.873306,559.487610 181.202179,561.102356 185.088135,560.369385 
	C210.134720,555.645203 235.362137,552.064392 260.774628,550.242615 
	C292.686310,547.954895 324.586548,547.066833 356.578369,550.327942 
	C386.065399,553.333679 414.910583,558.657349 442.538544,569.490173 
	C468.589539,579.704651 492.335754,593.520081 510.544586,615.437805 
	C511.070831,616.071289 511.713898,616.616211 512.349487,617.145996 
	C512.585449,617.342712 512.956665,617.377197 512.934509,617.369446 
	C516.998474,613.521606 520.954529,609.791809 524.893494,606.044128 
	C552.186157,580.077271 585.355774,565.892822 621.574524,557.832886 
	C647.672791,552.025146 674.154053,549.671143 700.825073,548.553040 
	C735.407532,547.103333 769.679321,550.098511 803.934387,554.305786 
	C816.676147,555.870789 829.320679,557.826965 841.865356,560.471741 
	C845.293152,561.194336 846.000671,559.439880 845.989685,556.693481 
	C845.957092,548.527588 845.875488,540.361633 845.870422,532.195740 
	C845.832764,471.531311 845.827026,410.866852 845.733765,350.202515 
	C845.728455,346.737091 846.515686,343.751312 848.259644,340.753815 
	C857.893005,324.195892 868.424377,308.166870 877.435120,291.243195 
	C877.821045,290.518219 878.181946,289.725128 879.704895,289.934875 
	C880.904785,291.832520 880.284058,294.206787 880.282776,296.396759 
	C880.226135,390.893402 880.122437,485.390045 880.036621,579.886658 
	C880.031494,585.552734 880.092468,591.219482 880.186401,596.884827 
	C880.235962,599.871216 879.374207,601.088745 876.016357,600.266113 
	C843.928894,592.404907 811.245605,588.435059 778.437622,585.049500 
	C749.526428,582.066101 720.547974,581.155457 691.601074,582.498657 
	C654.169006,584.235535 617.366150,589.969482 582.930420,605.973389 
	C577.357239,608.563538 572.094177,611.828796 566.732727,614.861633 
	C565.464478,615.578979 564.378357,616.618286 563.536255,618.327515 
	C566.212708,617.422668 568.944458,616.653870 571.556702,615.591187 
	C589.523071,608.281982 608.533020,605.847534 627.582275,603.940674 
	C660.513123,600.644348 693.434448,601.964600 726.383545,604.433838 
	C752.127869,606.363159 777.804199,608.774475 803.262329,612.964905 
	C834.579468,618.119751 866.010620,622.794617 896.670837,631.335083 
	C902.357971,632.919189 902.929382,632.439819 902.929626,625.771057 
	C902.932251,555.273254 902.911255,484.775452 902.900757,414.277649 
	C902.892761,360.779388 902.917969,307.281097 902.829712,253.782974 
	C902.823120,249.800415 903.601868,246.274399 905.695557,242.899216 
	C915.444397,227.183014 925.131470,211.429230 933.948120,195.158447 
	C934.666321,193.832993 935.123718,191.956192 937.247009,191.798355 
	C938.757751,193.166336 938.110596,194.937531 938.110596,196.492996 
	C938.112427,361.487915 938.092102,526.482849 938.034485,691.477783 
	C938.029541,705.610229 938.496643,703.193298 926.194946,703.198059 
	C810.698547,703.242310 695.202148,703.211792 579.705750,703.172424 
	C576.957703,703.171509 574.502258,703.539490 572.257141,705.364990 
	C552.121094,721.737976 528.489075,725.301941 503.547791,723.954407 
	C484.691895,722.935669 467.716888,716.916199 453.102875,704.763977 
	C450.938293,702.963989 448.473877,703.161377 445.990845,703.162292 
	C374.160553,703.188171 302.330261,703.219238 229.999969,703.249634 
M550.816040,678.318298 
	C551.794678,677.184326 553.096130,676.198303 553.695679,674.890503 
	C556.188049,669.454041 560.532166,668.679626 565.981567,668.809998 
	C582.964233,669.216431 599.961182,669.420776 616.942444,669.510742 
	C680.590576,669.848206 744.241638,669.646729 807.891602,669.601562 
	C819.368652,669.593384 830.859985,668.947754 842.319275,669.340332 
	C861.477600,669.996582 880.636475,669.459412 899.788879,669.930237 
	C902.132751,669.987854 903.759155,669.332642 903.611450,666.610535 
	C903.481445,664.215149 904.095337,661.861572 900.284729,661.128113 
	C865.971741,654.523315 831.532837,648.683411 796.864685,644.329712 
	C772.757507,641.302307 748.607300,638.661682 724.367126,636.737183 
	C686.614990,633.739990 648.911621,632.508301 611.143677,636.246887 
	C581.086121,639.222229 552.018372,645.739197 524.781433,659.271973 
	C516.121765,663.574524 507.544739,663.229370 499.006195,658.494446 
	C491.576965,654.374634 483.841431,650.901978 475.748077,648.184204 
	C453.155853,640.597778 429.751526,637.328796 406.177979,635.265381 
	C380.246552,632.995544 354.252228,633.461365 328.297852,635.176514 
	C298.065338,637.174316 267.881683,639.717102 237.800110,643.450256 
	C201.279816,647.982361 165.061478,654.310608 128.913071,661.109070 
	C125.815392,661.691650 122.869530,661.936218 123.082886,666.246338 
	C123.314026,670.915466 126.760925,669.710388 129.337646,669.710754 
	C218.647476,669.724365 307.957336,669.711609 397.267151,669.645874 
	C419.422455,669.629578 441.584290,669.981628 463.728607,668.972900 
	C467.360138,668.807434 469.937500,669.623230 471.893494,673.164551 
	C474.509705,677.900940 478.900787,681.058716 483.522339,683.864014 
	C494.594513,690.584778 506.758850,691.448669 519.229858,690.751953 
	C530.857849,690.102356 541.436096,686.666260 550.816040,678.318298 
M210.023651,615.440735 
	C234.772202,610.989746 259.738159,608.090393 284.757477,605.906006 
	C318.600800,602.951233 352.497650,600.307800 386.521057,602.842651 
	C407.989349,604.442017 429.190094,607.558289 449.709839,614.383911 
	C454.873383,616.101440 460.051666,617.774658 465.223145,619.468262 
	C460.104401,614.876587 454.419800,611.448303 448.428436,608.530334 
	C411.804016,590.693176 372.571716,584.156494 332.377838,582.412964 
	C314.254761,581.626831 296.089508,582.077576 277.931000,583.023499 
	C249.633713,584.497620 221.536072,587.631409 193.569138,591.979248 
	C179.433151,594.176941 165.344330,596.742249 151.402039,600.025879 
	C148.774567,600.644714 145.678787,601.479492 146.070145,596.896484 
	C147.234909,583.256104 146.143311,569.618469 146.128357,555.979614 
	C146.077057,509.177582 146.106232,462.375488 146.108093,415.573425 
	C146.109390,383.259979 145.922470,350.945007 146.182922,318.633606 
	C146.385468,293.506805 146.401138,268.387817 146.169632,243.260147 
	C145.833481,206.772354 146.043503,170.279541 146.016098,133.788879 
	C146.013275,130.035553 147.266663,126.223694 145.537689,122.304909 
	C139.781006,121.908897 134.392181,124.045135 128.811447,124.561203 
	C124.534508,124.956696 123.062111,126.925346 123.066116,131.365662 
	C123.215080,296.492096 123.237267,461.618652 123.300705,626.745178 
	C123.301384,628.515991 122.786087,630.420593 124.644745,632.702332 
	C152.274536,625.517212 180.657303,620.234070 210.023651,615.440735 
z"/>
<path fill="#000000" opacity="1.000000" stroke="none" 
	d="
M491.951660,203.980576 
	C515.341492,174.923248 545.629883,159.493454 582.129150,155.556824 
	C588.119019,154.910782 594.083252,154.619720 600.079956,154.843674 
	C607.399048,155.117004 614.221741,157.123398 620.263611,161.329666 
	C627.666199,166.483292 631.105103,175.502731 629.143494,184.149872 
	C627.307495,192.243851 620.182129,198.754150 611.709717,200.078827 
	C603.075867,201.428741 594.467346,197.148132 589.916260,189.126907 
	C588.604858,186.815704 587.503723,184.380096 586.390259,181.962799 
	C584.502380,177.864304 582.686279,177.364075 579.400330,180.580688 
	C574.115112,185.754303 572.424377,192.647064 571.431580,199.593216 
	C569.615295,212.300385 569.330566,225.064529 569.797791,237.934219 
	C570.680176,262.237823 570.793945,286.568848 571.283325,310.887360 
	C571.953552,344.194061 572.362244,377.510651 573.521301,410.800781 
	C574.029541,425.397064 574.386414,440.084564 577.327576,454.523743 
	C578.906921,462.277161 581.292786,469.655212 585.720093,476.259491 
	C596.029541,491.638336 614.922485,491.307831 624.797729,475.562866 
	C626.030640,473.597015 626.959595,471.435364 627.967896,469.334930 
	C629.715393,465.694763 632.457458,464.087860 636.489807,465.068298 
	C640.656189,466.081360 643.125610,468.383057 643.331970,473.016144 
	C643.971436,487.373932 630.815552,505.484863 615.446777,511.138519 
	C588.720093,520.970337 558.048401,509.796387 542.903687,485.041962 
	C533.090576,469.002197 528.709229,451.306274 526.861633,432.977478 
	C522.189514,386.629517 523.369080,340.107178 523.977661,293.645142 
	C524.329224,266.810028 527.325134,240.160324 535.518127,214.355453 
	C539.394897,202.145203 545.084412,190.960800 553.399902,181.162735 
	C554.675781,179.659439 555.874634,178.090881 557.729065,175.779953 
	C553.095215,176.474167 550.120972,178.438568 547.162476,180.486679 
	C526.344849,194.898346 516.465332,216.208359 509.742981,239.564194 
	C500.997925,269.947540 498.062195,301.280029 494.148499,332.477753 
	C489.738617,367.630829 485.448181,402.849335 474.332092,436.730469 
	C467.797760,456.646698 459.509125,475.781586 444.875824,491.224731 
	C428.865936,508.120728 409.465942,517.154846 385.683258,513.143677 
	C376.728119,511.633301 369.090729,507.225525 364.269897,498.985107 
	C359.219482,490.352234 360.275269,482.022797 365.801819,474.152557 
	C370.037537,468.120544 380.107269,465.003876 387.466949,467.395905 
	C396.570679,470.354797 401.719727,476.913696 403.182587,486.274384 
	C404.112000,492.221680 406.156342,493.278290 411.180542,489.734222 
	C416.452484,486.015503 418.983734,480.278046 421.444305,474.634766 
	C427.621857,460.466522 429.885284,445.270294 432.687897,430.237457 
	C437.599060,403.894348 440.369293,377.231720 444.343903,350.746979 
	C448.517670,322.934967 452.525208,295.117523 460.562042,268.065216 
	C467.400360,245.047165 476.942291,223.380508 491.951660,203.980576 
z"/>
<path fill="#000000" opacity="1.000000" stroke="none" 
	d="
M862.988525,134.016953 
	C864.744934,131.277634 866.453430,132.360184 868.297302,133.399323 
	C887.587036,144.270493 906.894470,155.110046 926.202454,165.948822 
	C931.916321,169.156372 931.902893,169.318008 928.589844,174.908966 
	C907.282715,210.866287 886.109375,246.903198 864.708313,282.804443 
	C836.913818,329.431030 808.915161,375.935852 781.090332,422.544373 
	C776.657959,429.968872 771.911804,437.242249 768.499146,445.237030 
	C767.280029,448.093109 765.416077,448.479462 762.940125,446.926086 
	C742.891846,434.347992 721.883240,423.463074 701.228333,411.955780 
	C698.351990,410.353302 698.204956,408.725555 699.868408,405.956268 
	C733.655029,349.708069 767.467285,293.474792 801.037537,237.097458 
	C820.805664,203.899216 840.540405,170.683929 860.909668,137.849579 
	C861.610474,136.719894 862.180359,135.508957 862.988525,134.016953 
z"/>
<path fill="#000000" opacity="1.000000" stroke="none" 
	d="
M936.720825,89.195229 
	C942.451843,92.658188 947.803955,96.024796 952.541870,100.268646 
	C961.048767,107.888573 963.454041,118.570518 958.300049,128.684555 
	C954.150391,136.827621 949.249390,144.584549 944.852234,152.606247 
	C942.863770,156.233887 940.544556,155.420166 937.863525,153.730148 
	C923.776245,144.850006 909.244751,136.737793 894.620850,128.787933 
	C888.627136,125.529633 882.643982,122.247208 876.572571,119.138794 
	C873.708191,117.672348 873.109253,116.193039 874.992493,113.318596 
	C879.642700,106.221062 883.933655,98.889397 888.499634,91.735237 
	C896.292603,79.525085 907.831787,75.946785 921.299988,81.306183 
	C926.585266,83.409355 931.473389,86.241531 936.720825,89.195229 
z"/>
<path fill="#000000" opacity="1.000000" stroke="none" 
	d="
M682.885254,501.005157 
	C688.007812,488.494049 687.043457,475.465393 688.568298,462.837982 
	C689.961731,451.298187 691.748901,439.769196 691.925964,428.098907 
	C691.934937,427.510651 692.385986,426.929077 693.075134,425.285858 
	C713.975769,436.923401 734.590454,448.401733 755.373413,459.973755 
	C753.258972,463.969543 750.157715,465.682373 747.307190,467.566711 
	C725.805664,481.780212 703.312805,494.598633 684.429443,512.482117 
	C683.391052,513.465515 682.365662,514.739380 680.045593,514.183105 
	C679.574036,509.664307 682.200317,505.707001 682.885254,501.005157 
z"/>
<path fill="#000000" opacity="1.000000" stroke="none" 
	d="
M577.986816,668.191162 
	C571.595703,668.188782 565.677124,668.482422 559.533020,667.424561 
	C563.280762,661.272461 590.786987,655.698975 599.618713,658.854675 
	C597.381104,662.011719 589.896179,660.092163 591.963806,667.143311 
	C587.410156,668.644531 582.895447,667.862732 577.986816,668.191162 
z"/>
<path fill="#000000" opacity="1.000000" stroke="none" 
	d="
M456.861511,666.956726 
	C443.353394,666.858154 435.554993,664.646729 431.774933,659.956543 
	C436.378967,656.401184 461.187897,660.819153 464.953400,666.066711 
	C462.554443,667.849182 459.860199,666.854919 456.861511,666.956726 
z"/>
<path fill="#000000" opacity="1.000000" stroke="none" 
	d="
M266.914551,659.005188 
	C269.588806,659.247009 271.904541,658.553040 275.266083,660.133728 
	C266.751190,661.467285 259.414734,662.508850 251.862091,661.278870 
	C256.557526,659.483093 261.460999,658.968567 266.914551,659.005188 
z"/>
<path fill="#000000" opacity="1.000000" stroke="none" 
	d="
M753.566772,658.958801 
	C756.622803,659.073608 759.280579,659.161621 761.932434,659.339478 
	C762.342163,659.366943 762.724182,659.806580 763.933105,660.569031 
	C758.665161,661.332825 754.313354,661.402405 749.761963,659.904968 
	C750.883789,658.537231 752.118774,659.176941 753.566772,658.958801 
z"/>
</svg>